<?xml version="1.0" encoding="utf-8"?>
<!-- Generator: Adobe Illustrator 27.4.1, SVG Export Plug-In . SVG Version: 6.00 Build 0)  -->
<svg version="1.1" id="Layer_1" xmlns="http://www.w3.org/2000/svg" xmlns:xlink="http://www.w3.org/1999/xlink" x="0px" y="0px"
	 viewBox="0 0 7719 448" style="enable-background:new 0 0 7719 448;" xml:space="preserve">
<style type="text/css">
	.st0{fill:none;stroke:#000000;stroke-miterlimit:10;}
	.st1{fill:none;stroke:#231F20;stroke-miterlimit:10;}
</style>
<image style="overflow:visible;enable-background:new    ;" width="7719" height="448" xlink:href="3B0477B8.jpg" >
</image>
<path class="st0" d="M3567.3,382.5V448H0v-65.5H3567.3z"/>
<path class="st0" d="M3847.8,382.5h371.5V448h-372.7L3847.8,382.5z"/>
<path class="st0" d="M4258.1,382.5h100.3V448h-100.3V382.5z"/>
<path class="st0" d="M4394.5,382.5h928.7V448h-928.7V382.5z"/>
<path class="st0" d="M5362.7,382.5h644.7V448h-644.7V382.5z"/>
<path class="st1" d="M6054,382.5h1665V448H6054V382.5z"/>
<path class="st0" d="M1289.6,210.1H2427v6.6H1289.6V210.1z"/>
<path class="st0" d="M86.8,388v-44.2h30.1V388H86.8z"/>
<path class="st0" d="M535.7,343.1h25.4v47.5h-25.4V343.1z"/>
<path class="st0" d="M885,345.3h23.2v43.3H885V345.3z"/>
<path class="st0" d="M1124.5,345.3h25.9v43.3h-25.9V345.3z"/>
<path class="st0" d="M1608.5,345.3h23.2v43h-23.2V345.3z"/>
<path class="st0" d="M1641.7,173.2h22.7v48.5h-22.7V173.2z"/>
<path class="st0" d="M1847.7,171.4h24.4v48.5h-24.4V171.4z"/>
<path class="st0" d="M2053.3,173.2h28v48.3h-28V173.2z"/>
<path class="st0" d="M2056.6,344.4h22.4v42.7h-22.4V344.4z"/>
<path class="st0" d="M2364.6,345.6h25.3v40.3h-25.3V345.6z"/>
<path class="st0" d="M2707.7,343.9h23.5v42.4h-23.5V343.9z"/>
<path class="st0" d="M3258.8,343h26.8v43.3h-26.8V343z"/>
</svg>
